<?xml version="1.0" standalone="no"?>
<!DOCTYPE svg PUBLIC "-//W3C//DTD SVG 20010904//EN"
 "http://www.w3.org/TR/2001/REC-SVG-20010904/DTD/svg10.dtd">
<svg version="1.0" xmlns="http://www.w3.org/2000/svg"
 width="1148.000000pt" height="1280.000000pt" viewBox="0 0 1148.000000 1280.000000"
 preserveAspectRatio="xMidYMid meet">
<metadata>
Created by potrace 1.15, written by Peter Selinger 2001-2017
</metadata>
<g transform="translate(0.000000,1280.000000) scale(0.100000,-0.100000)"
fill="#000000" stroke="none">
<path d="M2915 12791 c-138 -23 -355 -126 -500 -237 -55 -42 -146 -107 -202
-145 -56 -38 -140 -102 -185 -142 -46 -41 -91 -77 -100 -80 -20 -7 -24 -42 -8
-52 17 -11 100 44 177 117 68 64 103 83 103 56 -1 -35 -47 -106 -124 -192
-106 -117 -136 -161 -136 -197 0 -48 26 -35 123 64 74 74 104 113 152 201 149
272 322 426 575 514 138 48 206 57 415 57 312 -1 484 -39 825 -183 247 -105
728 -393 935 -562 39 -31 84 -65 100 -75 80 -50 363 -283 560 -460 376 -339
913 -896 1280 -1330 388 -457 674 -839 998 -1331 90 -137 188 -280 217 -319
29 -38 93 -122 141 -185 48 -63 144 -182 214 -265 179 -210 166 -193 130 -170
-242 155 -456 237 -690 265 -136 16 -342 -3 -481 -45 -26 -8 -51 -11 -54 -6
-3 4 -36 57 -73 117 -162 260 -452 658 -758 1039 -610 762 -1246 1433 -1764
1864 -55 46 -101 87 -103 91 -4 11 117 120 194 174 86 60 127 113 159 204 29
83 31 121 9 163 -8 17 -14 35 -12 40 2 5 48 -28 104 -73 55 -46 121 -97 145
-114 221 -153 927 -839 1260 -1224 277 -320 445 -520 511 -609 31 -42 66 -85
76 -96 10 -11 38 -49 62 -85 24 -36 106 -147 181 -246 75 -100 180 -246 233
-325 53 -79 125 -183 159 -231 34 -47 79 -114 101 -148 21 -34 71 -96 110
-138 39 -42 87 -99 105 -125 18 -27 35 -46 38 -43 8 8 -59 144 -129 266 -305
525 -920 1326 -1509 1965 -203 220 -717 729 -932 923 -319 286 -483 412 -539
412 -37 0 -69 23 -203 145 -249 228 -595 420 -995 555 -142 47 -224 60 -439
66 -288 9 -385 -7 -576 -96 -75 -34 -151 -87 -141 -97 2 -3 42 12 88 32 146
65 235 94 320 105 119 15 159 10 53 -6 -119 -18 -243 -57 -337 -106 -71 -37
-155 -104 -144 -115 2 -3 32 14 66 37 131 89 281 138 485 159 139 15 175 21
175 31 0 5 -12 11 -27 14 -16 2 22 3 82 0 266 -10 497 -90 1002 -345 181 -92
333 -181 333 -195 0 -4 -7 -12 -16 -19 -14 -10 -13 -13 8 -27 14 -9 68 -52
121 -97 54 -44 105 -84 114 -90 10 -5 16 -12 13 -15 -3 -2 -46 25 -95 61 -134
97 -250 166 -453 271 -101 52 -181 96 -179 99 6 6 219 -96 304 -145 75 -44
123 -61 123 -44 0 23 -228 135 -615 302 -211 91 -384 148 -522 174 -67 12 -30
-13 50 -33 149 -40 170 -56 31 -26 -94 21 -264 43 -264 34 0 -7 145 -54 260
-84 113 -30 330 -106 490 -172 162 -67 453 -204 447 -210 -2 -2 -46 17 -98 41
-358 167 -687 279 -1035 352 -159 33 -196 37 -331 38 -83 1 -150 2 -148 4 2 2
36 12 75 22 81 21 97 30 54 30 -43 0 -239 -70 -315 -112 -234 -131 -355 -385
-404 -847 -24 -227 -18 -703 10 -829 4 -15 2 -21 -5 -17 -12 7 -12 7 0 -77 5
-37 23 -107 40 -155 17 -48 35 -116 41 -151 27 -173 273 -812 529 -1377 142
-314 388 -790 552 -1070 428 -729 520 -876 757 -1210 136 -192 190 -260 332
-418 60 -66 109 -126 109 -133 0 -8 -12 -21 -28 -31 -48 -29 -53 -41 -36 -81
23 -57 280 -434 378 -556 127 -157 157 -211 226 -407 67 -188 87 -226 75 -144
-33 234 -120 413 -302 625 -49 58 -96 116 -103 130 -11 22 -11 23 3 10 8 -8
57 -64 108 -125 143 -170 214 -289 280 -472 18 -51 36 -93 40 -93 4 0 11 9 14
21 16 50 25 -8 26 -171 1 -156 4 -182 25 -243 33 -94 43 -112 121 -208 100
-124 272 -298 406 -411 64 -54 117 -102 117 -105 0 -7 9 -13 -180 138 -171
136 -379 337 -427 412 -17 26 -48 90 -68 142 -58 150 -78 135 -164 -121 -71
-211 -63 -218 43 -40 l64 108 7 -46 c4 -25 5 -56 1 -69 -7 -30 -375 -377 -516
-488 -58 -45 -125 -100 -149 -121 -24 -21 -52 -38 -63 -38 -24 0 -82 29 -74
37 3 4 44 21 90 38 47 17 110 47 140 65 61 37 148 120 127 120 -8 0 -57 -22
-110 -49 -113 -57 -198 -87 -299 -107 -87 -17 -82 -16 -82 -6 0 5 35 16 79 24
166 33 346 128 437 232 106 120 217 327 235 438 13 77 4 309 -16 394 -29 125
-124 312 -214 417 -139 166 -375 303 -556 326 -91 11 -288 -1 -379 -24 -34 -8
-99 -34 -145 -57 -146 -73 -307 -247 -367 -397 -27 -67 -40 -131 -27 -131 5 0
33 43 62 95 175 317 389 456 703 458 65 1 122 -3 128 -9 6 -6 -17 -8 -67 -6
-60 4 -75 2 -71 -9 3 -9 28 -17 64 -21 32 -3 70 -11 84 -17 25 -10 24 -10 -7
-10 -40 -1 -43 -16 -5 -30 22 -9 14 -10 -48 -8 -65 2 -75 0 -78 -16 -5 -23 25
-57 50 -57 10 0 18 -4 18 -9 0 -5 -12 -9 -27 -8 -16 1 -62 0 -103 -2 -55 -2
-68 -5 -50 -11 14 -4 40 -8 58 -9 53 -2 37 -19 -25 -27 -47 -6 -53 -9 -33 -15
14 -4 41 -8 60 -8 l35 -2 -35 -15 c-31 -14 -33 -16 -17 -26 18 -9 18 -10 0
-23 -17 -13 -16 -14 12 -26 30 -13 30 -13 5 -16 -51 -7 -70 -14 -70 -23 0 -6
9 -10 20 -10 22 0 27 -15 8 -23 -18 -7 10 -27 38 -27 11 0 38 -13 60 -28 21
-16 55 -35 74 -42 64 -24 170 -120 170 -153 0 -10 11 -33 23 -50 27 -36 60
-125 76 -208 13 -60 38 -104 47 -81 9 19 24 14 24 -7 0 -11 4 -22 9 -25 10 -7
21 16 21 47 1 21 2 20 21 -5 22 -29 74 -39 81 -16 3 9 13 8 39 -5 33 -16 35
-16 52 4 9 12 17 38 17 60 0 21 5 41 10 44 6 4 10 -18 10 -59 0 -86 17 -85 25
2 3 37 10 85 15 107 8 34 9 30 4 -22 -6 -79 5 -188 18 -175 6 6 14 56 18 112
4 56 11 104 14 107 3 4 6 -32 6 -80 0 -138 28 -122 31 18 l2 70 11 -87 c13
-97 21 -113 36 -77 16 37 3 -115 -15 -174 -73 -242 -332 -472 -572 -507 -214
-31 -432 11 -599 116 -122 75 -289 253 -329 348 -17 41 -72 95 -105 103 -41
10 -109 64 -212 171 -140 144 -157 189 -138 355 20 164 82 335 173 469 46 69
218 278 228 278 4 0 15 -12 25 -27 10 -16 42 -54 72 -85 l54 -57 -64 -74
c-102 -121 -169 -248 -182 -347 -7 -51 7 -86 24 -60 5 8 10 25 10 37 0 33 64
149 127 232 115 150 284 267 463 320 102 30 141 32 260 16 214 -30 342 -80
528 -208 56 -39 105 -67 108 -64 4 3 -3 22 -14 42 -23 38 -19 45 10 18 47 -42
6 31 -160 288 -97 152 -213 337 -257 413 -78 134 -130 214 -403 620 -860 1277
-1501 2611 -1772 3681 -115 456 -140 642 -140 1051 0 173 4 267 15 330 28 160
109 371 190 493 20 29 34 55 33 57 -8 7 -133 -146 -174 -213 -52 -83 -114
-229 -138 -326 -26 -105 -34 -245 -25 -447 16 -370 37 -491 149 -885 164 -573
474 -1381 775 -2015 169 -356 504 -1018 550 -1084 24 -35 74 -119 111 -187 83
-153 88 -160 254 -394 126 -176 281 -409 309 -463 9 -17 9 -23 -1 -26 -7 -3
-69 -19 -138 -37 -228 -58 -381 -122 -511 -209 l-60 -41 -19 23 c-11 13 -75
102 -142 198 -67 96 -154 218 -193 270 -85 115 -106 148 -325 509 -471 780
-731 1286 -965 1881 -124 315 -213 588 -294 900 -68 264 -69 277 -91 777 -11
257 -24 506 -30 553 -5 47 -10 86 -10 88 0 1 -4 2 -9 2 -5 0 -12 -42 -16 -94
-6 -85 -9 -95 -28 -100 -12 -3 -23 -2 -25 3 -6 17 -98 -20 -191 -76 -180 -107
-291 -246 -353 -440 -23 -71 -38 -103 -50 -107 -26 -6 -31 8 -23 77 9 80 57
225 101 304 78 140 198 277 269 308 17 8 53 34 82 58 33 28 66 47 90 51 91 16
118 43 130 133 3 27 12 62 21 78 20 41 63 97 69 91 3 -3 -5 -47 -18 -99 -22
-91 -21 -136 2 -121 21 13 39 73 54 188 10 79 23 132 39 164 13 26 28 63 34
83 5 20 29 62 54 95 24 32 71 95 104 139 58 77 114 164 114 178 0 17 -29 3
-96 -48 -200 -150 -317 -304 -374 -493 -26 -85 -22 -82 -195 -137 -211 -66
-370 -152 -467 -252 -72 -75 -223 -268 -296 -378 -36 -55 -113 -154 -170 -220
-57 -66 -134 -165 -171 -221 -60 -88 -71 -113 -98 -215 -48 -175 -58 -262 -57
-479 1 -219 14 -329 70 -567 112 -484 357 -1037 742 -1678 252 -420 556 -849
921 -1300 192 -237 306 -367 547 -620 495 -522 561 -596 652 -728 124 -184
387 -465 470 -505 27 -13 54 -44 106 -122 84 -125 192 -236 300 -309 127 -86
182 -107 414 -161 124 -28 255 -84 287 -122 l25 -30 0 -336 c0 -355 12 -521
49 -707 38 -185 106 -379 189 -535 22 -41 99 -189 171 -328 72 -140 161 -299
197 -354 257 -389 597 -673 1067 -888 256 -118 435 -166 767 -205 169 -19 518
-19 710 0 194 20 405 73 609 153 91 35 175 66 187 69 16 4 52 -24 154 -119
153 -142 323 -281 428 -349 86 -56 122 -64 271 -57 118 6 150 18 251 91 75 56
189 166 208 202 20 39 28 205 13 262 -15 56 -84 130 -286 306 -266 232 -315
278 -315 292 0 8 26 32 58 54 101 69 157 138 247 306 26 50 76 138 111 197
100 170 217 418 263 557 12 36 28 75 36 87 8 12 67 49 132 83 65 33 139 73
165 88 26 15 49 25 51 23 2 -3 39 -68 82 -145 43 -77 105 -183 138 -235 133
-214 178 -251 312 -258 97 -5 148 13 263 92 145 98 192 182 192 341 l0 95 -86
171 c-91 182 -164 307 -220 376 -19 23 -34 44 -34 48 0 4 23 32 51 63 117 128
304 454 374 652 40 113 84 299 106 445 66 444 8 921 -156 1275 -24 52 -69 160
-100 240 -69 182 -83 208 -213 405 -90 138 -124 179 -241 295 -364 361 -789
581 -1271 656 -63 10 -113 23 -124 33 -10 9 -49 78 -87 154 -38 77 -86 164
-107 195 -51 78 -240 271 -402 412 -174 151 -235 216 -409 440 -80 102 -168
212 -197 245 -28 33 -148 204 -266 380 -389 583 -744 1042 -1197 1545 -423
470 -885 928 -1216 1206 -181 152 -501 403 -610 479 -337 235 -739 447 -1052
555 -204 71 -273 81 -573 85 -146 2 -287 0 -315 -4z m941 -357 c18 -14 18 -15
-6 -8 -31 8 -50 24 -29 24 8 0 24 -7 35 -16z m282 -126 c24 -11 41 -22 39 -25
-6 -5 -237 103 -237 111 0 3 35 -11 78 -30 42 -20 96 -45 120 -56z m-818 -780
c94 -19 319 -92 716 -232 183 -65 305 -94 426 -102 67 -4 115 -13 138 -25 98
-49 538 -446 920 -829 408 -409 558 -575 905 -1000 227 -279 302 -368 356
-425 26 -27 93 -124 150 -215 114 -184 197 -310 274 -415 28 -38 60 -83 70
-100 l18 -30 -20 20 c-11 11 -74 81 -140 155 -66 74 -193 212 -284 305 -90 94
-171 178 -179 187 -31 36 -451 431 -585 549 -696 618 -1520 1215 -2161 1565
-232 126 -690 356 -774 387 -36 14 -98 39 -139 56 -71 30 -147 52 -225 66 -33
5 -37 8 -25 20 28 28 192 77 279 84 107 8 149 5 280 -21z m-1920 -92 c0 -25
-50 -55 -103 -62 -41 -6 -58 -14 -88 -45 -20 -21 -62 -52 -92 -69 -30 -17 -63
-43 -73 -58 -9 -15 -38 -52 -64 -82 -111 -131 -175 -235 -216 -351 -22 -61
-28 -100 -34 -219 -7 -151 3 -461 19 -565 23 -150 87 -369 194 -660 15 -38 24
-71 22 -73 -7 -7 -62 126 -131 318 -124 341 -212 810 -185 977 18 110 91 283
158 377 90 125 152 216 147 216 -14 0 -139 -120 -171 -163 -35 -48 -69 -74
-81 -62 -4 4 1 11 11 16 9 6 17 20 17 32 1 45 42 111 113 181 84 84 191 157
334 227 145 71 223 94 223 65z m1623 -188 c37 -17 67 -35 67 -39 0 -5 10 -9
21 -9 53 0 457 -189 749 -350 356 -196 1128 -711 1295 -865 22 -20 34 -35 27
-33 -13 3 -193 128 -352 245 -54 39 -113 79 -132 89 -18 9 -49 29 -68 44 -45
35 -149 94 -156 88 -7 -8 36 -58 50 -58 15 0 156 -94 381 -253 517 -366 1028
-790 1485 -1232 86 -82 236 -215 335 -295 194 -156 352 -308 483 -463 78 -94
93 -117 73 -117 -22 0 -130 -93 -170 -147 -82 -109 -161 -309 -179 -453 -5
-39 -11 -55 -22 -55 -8 0 -40 36 -70 80 -60 89 -229 293 -325 395 -34 36 -80
90 -102 120 -22 31 -112 123 -199 205 -87 83 -217 206 -289 274 -71 69 -181
168 -244 220 -215 181 -273 231 -379 324 -351 306 -1153 888 -1554 1128 l-107
64 78 80 c84 86 123 140 165 224 30 58 56 163 56 224 l0 39 33 -21 c17 -12
106 -66 197 -120 91 -55 178 -113 194 -130 30 -31 76 -42 76 -18 0 8 -10 23
-22 34 -52 47 -388 252 -472 287 -41 17 -66 9 -66 -20 0 -8 -2 -14 -5 -14 -3
0 -96 46 -208 103 -211 107 -322 151 -597 237 -353 110 -380 122 -380 162 0
22 -7 23 81 -6 79 -26 149 -41 149 -33 0 3 -48 22 -107 43 -58 21 -102 39 -96
41 9 3 150 -33 213 -55 10 -3 12 -2 5 6 -5 6 -55 25 -110 43 -55 18 -94 34
-87 36 10 4 282 -71 305 -84 4 -2 7 0 7 4 0 5 -59 30 -130 57 -72 27 -133 52
-136 57 -7 12 153 -44 239 -83z m-2378 -280 c-29 -126 -37 -174 -46 -285 -18
-214 2 -506 47 -712 110 -495 305 -946 676 -1559 171 -283 724 -1014 1118
-1477 74 -88 162 -191 194 -230 33 -38 179 -203 326 -365 147 -162 281 -311
298 -331 l31 -36 -60 -79 c-98 -127 -219 -313 -261 -399 -38 -79 -74 -215 -64
-242 10 -24 22 -13 45 40 58 133 136 279 187 347 205 280 199 274 241 250 65
-37 58 -67 -52 -205 -148 -185 -238 -414 -260 -657 -9 -98 -23 -92 -120 47
-86 124 -166 215 -370 425 -239 246 -333 349 -570 620 -99 113 -238 270 -309
350 -216 242 -471 584 -742 995 -165 252 -257 412 -394 690 -232 470 -342 796
-422 1252 -30 170 -33 206 -32 378 1 313 36 484 130 639 21 34 87 127 148 208
61 80 141 194 178 252 64 102 94 132 83 84z m2689 -13 c51 -21 45 -27 -9 -8
-25 8 -45 17 -45 19 0 8 18 4 54 -11z m-589 -618 c117 -36 213 -69 365 -127
152 -58 234 -80 300 -80 25 0 70 -11 101 -23 187 -78 921 -569 1291 -866 501
-400 864 -722 1311 -1161 322 -315 546 -565 669 -744 95 -138 213 -282 316
-385 51 -52 123 -132 159 -179 37 -46 102 -122 146 -168 51 -55 76 -88 71 -96
-4 -7 -51 -60 -104 -118 -164 -180 -215 -248 -370 -505 -153 -254 -155 -255
-280 -270 -157 -19 -730 -192 -903 -273 -82 -38 -204 -116 -322 -205 -33 -25
-62 -44 -66 -41 -3 2 -14 32 -24 66 -25 90 -96 233 -152 304 -26 34 -90 108
-141 165 -51 57 -95 115 -99 129 -11 47 -52 118 -152 264 -123 179 -162 228
-311 387 -111 118 -211 254 -487 662 -92 135 -423 693 -640 1077 -67 119 -285
549 -416 820 -124 257 -347 815 -444 1110 -68 207 -85 282 -69 308 7 11 123
-13 251 -51z m-1275 -126 c0 -29 67 -294 118 -466 206 -697 574 -1552 995
-2311 93 -168 420 -732 465 -802 9 -15 46 -67 83 -117 90 -122 382 -555 378
-560 -14 -12 -703 673 -759 755 -13 19 -85 112 -160 205 -298 372 -651 847
-804 1079 -96 146 -260 410 -319 513 -113 198 -338 653 -377 764 -13 35 -12
38 37 110 93 138 127 229 152 414 38 285 40 290 139 412 37 46 52 47 52 4z
m-456 -1058 c4 -13 5 -23 1 -23 -6 0 -35 63 -35 77 0 12 27 -30 34 -54z m50
-109 c10 -25 -1 -29 -14 -5 -6 12 -7 21 -1 21 5 0 12 -7 15 -16z m86 -177 c0
-5 -4 -5 -10 -2 -5 3 -10 14 -10 23 0 15 2 15 10 2 5 -8 10 -19 10 -23z m6801
-817 c228 -47 448 -154 649 -318 125 -101 270 -251 366 -377 92 -121 168 -234
162 -240 -1 -1 -32 2 -68 7 -100 15 -306 14 -385 -1 -163 -31 -511 -142 -653
-208 -53 -24 -172 -94 -264 -155 -114 -75 -173 -108 -185 -104 -26 8 -344 310
-468 445 -101 108 -155 188 -155 229 0 32 89 290 124 360 19 37 54 95 79 129
51 69 159 163 186 163 11 0 52 14 92 31 40 17 100 37 133 44 95 21 272 18 387
-5z m826 -392 c34 -37 -4 -15 -57 34 l-55 50 47 -32 c27 -19 55 -42 65 -52z
m78 -66 c-6 -7 -35 18 -35 31 0 5 9 2 20 -8 11 -10 18 -20 15 -23z m130 -122
c16 -16 24 -30 19 -30 -6 0 -23 14 -39 30 -16 17 -24 30 -19 30 6 0 23 -13 39
-30z m64 -94 c-2 -2 -13 8 -23 22 l-19 27 24 -22 c12 -12 21 -24 18 -27z m96
-336 c428 -25 629 -77 990 -256 214 -105 360 -201 467 -305 82 -80 88 -93 16
-35 -21 16 -40 27 -43 25 -2 -3 50 -70 116 -150 310 -370 475 -716 534 -1120
25 -168 30 -477 11 -659 -19 -174 -69 -407 -126 -580 -38 -115 -100 -264 -107
-257 -2 2 19 63 46 134 84 220 148 494 171 736 13 126 8 488 -6 550 -16 68
-20 7 -20 -270 0 -266 -2 -312 -22 -428 -57 -322 -168 -638 -312 -886 -158
-273 -334 -483 -570 -681 -99 -83 -261 -198 -280 -198 -8 0 -9 30 -4 98 13
204 -22 568 -77 792 -39 159 -121 435 -140 472 -10 20 -36 81 -57 136 -40 103
-104 206 -249 399 -238 318 -611 627 -981 812 -199 100 -394 174 -521 197
-408 74 -509 87 -809 100 -111 5 -155 11 -159 20 -14 38 249 431 411 612 30
33 87 102 128 153 93 115 127 148 248 234 127 90 297 170 515 243 182 61 247
77 430 106 129 20 154 23 190 19 17 -1 111 -7 210 -13z m-4783 -687 c16 -18
118 -204 118 -215 0 -3 -64 -8 -142 -12 -303 -15 -447 -45 -626 -131 -125 -60
-123 -60 -142 5 -9 32 -8 37 19 61 68 62 319 192 451 234 77 24 269 73 296 74
6 1 18 -7 26 -16z m6439 -60 c69 -71 85 -93 194 -263 90 -139 185 -333 172
-347 -5 -4 -90 145 -156 272 -40 78 -160 248 -249 353 -63 74 -39 65 39 -15z
m-6358 -242 c32 -5 58 -18 78 -37 26 -25 229 -291 254 -333 4 -7 -21 3 -56 22
-123 69 -261 98 -466 98 -188 0 -306 -26 -432 -97 -24 -13 -45 -23 -46 -22
-29 36 -114 182 -109 189 11 18 204 109 282 134 146 46 370 66 495 46z m-827
-253 c63 -79 75 -100 40 -68 -43 38 -108 130 -93 130 2 0 26 -28 53 -62z
m7590 -190 c36 -70 135 -386 158 -506 46 -237 59 -529 35 -754 -11 -104 -90
-451 -108 -472 -5 -6 -21 -47 -36 -90 -49 -148 -190 -399 -332 -588 -110 -148
-121 -183 -80 -255 12 -22 55 -101 96 -174 41 -74 100 -179 132 -235 59 -104
89 -185 89 -238 -1 -76 -71 -166 -184 -234 -55 -32 -68 -36 -136 -37 -41 0
-87 5 -101 12 -41 19 -131 151 -337 494 -28 48 -58 92 -67 99 -12 10 5 32 118
144 138 136 195 202 183 213 -4 4 -39 -25 -79 -64 -166 -162 -342 -298 -475
-368 -70 -36 -78 -26 -10 13 73 42 293 219 406 327 86 81 142 145 128 145 -4
0 -48 -39 -99 -87 -149 -140 -484 -379 -504 -360 -12 13 32 48 121 99 287 162
550 439 782 825 43 72 80 128 82 123 8 -21 -130 -251 -255 -423 -47 -65 -83
-120 -80 -123 7 -8 126 124 146 164 11 20 40 69 66 107 61 92 175 318 231 457
88 220 170 547 195 783 25 235 -28 773 -92 938 -18 44 -25 97 -14 97 2 0 12
-15 21 -32z m-3791 -13 c222 -22 355 -45 553 -94 69 -17 352 -140 541 -236 39
-19 75 -35 81 -35 18 0 145 -85 274 -183 141 -108 353 -310 482 -460 109 -128
299 -422 373 -581 60 -128 107 -269 166 -501 75 -292 78 -316 71 -605 -3 -140
-9 -281 -12 -312 l-6 -57 33 -9 34 -9 -32 -16 c-18 -9 -46 -17 -63 -17 -67 0
-82 -26 -130 -215 -17 -65 -35 -124 -40 -129 -14 -14 -13 4 10 130 35 185 27
608 -16 859 -28 164 -83 349 -99 333 -3 -3 8 -54 25 -114 17 -60 35 -136 40
-169 16 -99 13 -810 -5 -961 -8 -71 -15 -138 -15 -149 0 -18 2 -18 20 5 32 41
23 16 -34 -98 -106 -211 -303 -538 -365 -605 -35 -39 -157 -100 -185 -93 -22
6 -239 176 -232 183 2 2 37 -16 77 -40 80 -47 158 -81 167 -73 9 10 -17 32
-70 61 -135 72 -383 253 -731 533 -126 101 -244 193 -263 204 -19 11 -34 25
-34 31 0 7 -11 35 -24 62 -30 66 -114 156 -235 253 -53 42 -169 148 -259 236
-90 87 -166 155 -169 152 -3 -3 -11 1 -17 10 -7 8 -19 12 -28 9 -17 -7 -84
-98 -112 -152 -15 -31 -15 -32 7 -35 17 -2 23 -11 25 -35 3 -26 -5 -41 -39
-78 -45 -49 -44 -57 3 -24 l29 21 27 -24 c80 -71 175 -159 332 -308 97 -91
202 -189 233 -218 l57 -53 -25 -37 c-14 -21 -21 -38 -15 -40 12 -4 138 89 193
142 l37 37 28 -23 c15 -13 72 -62 127 -109 123 -105 189 -155 327 -247 58 -39
110 -77 114 -83 8 -13 6 -12 -58 28 -50 30 -48 19 5 -35 l42 -44 -72 52 c-40
28 -77 50 -84 48 -18 -6 123 -150 394 -402 136 -127 305 -284 375 -350 70 -65
196 -174 281 -242 167 -134 200 -170 208 -232 8 -59 -13 -108 -73 -168 -72
-71 -95 -77 -142 -32 -20 20 -100 79 -177 133 -148 103 -281 209 -288 228 -2
7 3 24 11 39 23 39 8 45 -32 14 -19 -14 -37 -26 -39 -26 -2 0 -7 18 -11 40 -8
48 -51 99 -120 144 -73 47 -166 126 -456 390 -269 245 -512 459 -619 544 -76
61 -108 66 -167 26 -51 -34 -134 -115 -134 -131 0 -7 -33 -37 -74 -67 -41 -30
-77 -59 -81 -65 -3 -6 -20 -11 -36 -11 -22 0 -32 -7 -41 -25 -9 -21 -7 -30 15
-62 53 -76 367 -333 640 -524 244 -170 257 -161 27 19 -254 200 -574 465 -600
498 -8 10 21 -11 65 -47 523 -431 651 -525 850 -629 l120 -62 -45 41 c-49 44
-49 49 -1 25 18 -9 35 -13 39 -9 4 3 -124 135 -284 293 -161 158 -335 341
-389 407 -54 66 -114 134 -133 151 l-35 31 62 51 c95 80 95 80 149 35 78 -63
434 -377 570 -502 70 -64 206 -186 302 -271 185 -162 290 -260 290 -271 0 -7
-139 -108 -192 -139 l-38 -22 -69 51 c-38 28 -92 58 -121 67 -28 8 -101 40
-162 70 -61 29 -118 54 -127 54 -21 -1 46 -61 124 -111 117 -75 28 -38 -112
47 -78 47 -148 84 -154 82 -7 -2 10 -17 38 -34 72 -42 222 -148 222 -157 2
-25 -256 -107 -500 -158 -126 -27 -171 -31 -365 -36 -249 -7 -410 5 -604 43
-330 64 -645 189 -909 360 -277 181 -538 441 -718 715 -114 175 -252 461 -298
623 -19 68 -43 241 -51 377 -4 62 -11 109 -17 109 -13 0 -2 -255 17 -375 24
-156 -6 -131 -74 59 -98 277 -136 435 -150 621 -11 161 -12 548 -1 679 7 83
10 91 39 115 17 14 122 108 234 207 225 201 509 444 520 444 4 0 69 -62 145
-138 91 -91 199 -184 318 -274 99 -76 241 -192 315 -259 224 -202 615 -543
702 -613 45 -36 90 -66 100 -66 23 0 47 37 40 63 -8 35 -433 444 -837 807
-266 238 -385 352 -500 479 -163 178 -198 253 -211 461 -6 95 -5 107 12 122
11 9 80 49 154 88 74 40 144 80 155 90 19 17 396 187 497 224 42 16 83 46 61
46 -5 0 -65 -16 -133 -35 -102 -29 -184 -65 -440 -190 -174 -85 -321 -155
-328 -155 -17 0 -15 31 3 58 41 58 318 225 505 305 268 114 642 207 835 207
88 0 271 22 282 34 11 11 154 6 308 -9z m-2978 -41 c-3 -3 -12 -4 -19 -1 -8 3
-5 6 6 6 11 1 17 -2 13 -5z m228 -100 c10 -8 17 -16 14 -18 -6 -7 -149 77
-149 87 0 8 98 -42 135 -69z m-342 29 c-7 -2 -19 -2 -25 0 -7 3 -2 5 12 5 14
0 19 -2 13 -5z m187 -64 c0 -5 -11 -3 -25 3 -14 6 -25 15 -25 19 0 5 11 3 25
-3 14 -6 25 -15 25 -19z m285 -80 c44 -45 71 -77 60 -71 -11 6 -38 30 -60 54
-114 122 -114 133 0 17z m-209 46 c10 -8 14 -15 8 -15 -5 0 -19 7 -30 15 -10
8 -14 15 -8 15 5 0 19 -7 30 -15z m269 -25 c21 -22 37 -40 34 -40 -3 0 -23 18
-44 40 -21 22 -37 40 -34 40 3 0 23 -18 44 -40z m-548 24 c-3 -3 -12 -4 -19
-1 -8 3 -5 6 6 6 11 1 17 -2 13 -5z m353 -59 c19 -19 32 -35 29 -35 -3 0 -20
16 -39 35 -19 19 -32 35 -29 35 3 0 20 -16 39 -35z m-350 15 c0 -5 -9 -10 -20
-10 -11 0 -20 5 -20 10 0 6 9 10 20 10 11 0 20 -4 20 -10z m499 -77 c2 -2 2
-5 0 -8 -3 -2 -25 17 -50 43 l-44 47 45 -40 c25 -22 47 -41 49 -42z m-234 6
c14 -22 -1 -17 -35 12 l-35 30 32 -15 c17 -9 35 -21 38 -27z m-285 21 c0 -5
-4 -10 -9 -10 -6 0 -13 5 -16 10 -3 6 1 10 9 10 9 0 16 -4 16 -10z m110 -30
c46 -23 64 -45 26 -30 -37 14 -86 40 -86 45 0 10 22 4 60 -15z m325 -69 c-7
-6 -64 49 -77 74 -6 11 10 0 36 -24 25 -25 43 -47 41 -50z m-450 49 c-3 -5
-10 -10 -16 -10 -5 0 -9 5 -9 10 0 6 7 10 16 10 8 0 12 -4 9 -10z m330 -70
c33 -33 57 -60 54 -60 -2 0 -31 27 -64 60 -33 33 -57 60 -54 60 2 0 31 -27 64
-60z m181 28 l29 -33 -32 29 c-31 28 -38 36 -30 36 2 0 16 -15 33 -32z m-271
-26 c-6 -7 -35 18 -35 31 0 5 9 2 20 -8 11 -10 18 -20 15 -23z m415 7 c6 -10
7 -19 2 -19 -5 0 -14 12 -20 26 -14 29 2 24 18 -7z m-682 14 c-10 -2 -28 -2
-40 0 -13 2 -5 4 17 4 22 1 32 -1 23 -4z m108 -35 c24 -12 44 -25 44 -30 0 -8
-55 18 -90 41 -26 18 1 12 46 -11z m214 -13 c20 -24 6 -28 -15 -5 -10 11 -13
20 -8 20 6 0 16 -7 23 -15z m160 -38 c0 -6 -9 -2 -20 8 -11 10 -20 23 -20 28
0 6 9 2 20 -8 11 -10 20 -23 20 -28z m115 13 c9 -16 12 -30 7 -30 -8 0 -32 42
-32 55 0 13 11 2 25 -25z m-265 -77 c0 -8 -9 0 -50 45 l-45 47 48 -45 c26 -24
47 -45 47 -47z m-90 12 c30 -30 52 -55 49 -55 -2 0 -29 25 -59 55 -30 30 -52
55 -49 55 2 0 29 -25 59 -55z m155 -13 c-6 -7 -35 18 -35 31 0 5 9 2 20 -8 11
-10 18 -20 15 -23z m245 -3 c0 -6 -4 -7 -10 -4 -5 3 -10 11 -10 16 0 6 5 7 10
4 6 -3 10 -11 10 -16z m113 -9 c3 -11 2 -20 -3 -20 -8 0 -20 24 -20 41 0 17
17 1 23 -21z m-297 -107 c-6 -6 -46 72 -46 89 1 7 12 -9 26 -35 14 -27 23 -51
20 -54z m-99 -31 c13 -30 22 -57 19 -59 -5 -5 -39 58 -56 103 -19 49 12 13 37
-44z m430 6 c-3 -7 -5 -2 -5 12 0 14 2 19 5 13 2 -7 2 -19 0 -25z m-50 -10
c-3 -7 -5 -2 -5 12 0 14 2 19 5 13 2 -7 2 -19 0 -25z m-50 -25 c-3 -10 -5 -4
-5 12 0 17 2 24 5 18 2 -7 2 -21 0 -30z m-100 -35 c-3 -7 -5 -2 -5 12 0 14 2
19 5 13 2 -7 2 -19 0 -25z m260 -5 c-3 -10 -5 -4 -5 12 0 17 2 24 5 18 2 -7 2
-21 0 -30z m-310 -15 c-3 -7 -5 -2 -5 12 0 14 2 19 5 13 2 -7 2 -19 0 -25z
m-44 -23 c-7 -21 -13 -19 -13 6 0 11 4 18 10 14 5 -3 7 -12 3 -20z m-52 -42
c-9 -16 -10 -14 -11 12 0 21 3 26 11 18 8 -8 8 -16 0 -30z m-41 0 c0 -19 -3
-24 -10 -17 -6 6 -8 18 -4 27 9 24 14 21 14 -10z m1515 -923 c10 -11 16 -20
13 -20 -3 0 -13 9 -23 20 -10 11 -16 20 -13 20 3 0 13 -9 23 -20z m170 -159
c-7 -6 -105 90 -105 103 0 6 25 -14 55 -44 30 -29 52 -56 50 -59z m218 -201
c-2 -2 -29 23 -61 55 l-57 59 60 -54 c34 -30 59 -57 58 -60z m142 -120 c33
-33 57 -60 54 -60 -2 0 -31 27 -64 60 -33 33 -57 60 -54 60 2 0 31 -27 64 -60z
m289 -279 c-6 -6 -134 120 -134 133 0 6 31 -21 70 -59 38 -38 67 -71 64 -74z
m646 -617 c303 -280 363 -338 311 -302 -59 42 -652 597 -638 598 5 0 152 -133
327 -296z m-110 -49 c0 -5 -47 37 -105 95 -58 58 -105 109 -105 115 0 5 47
-37 105 -95 58 -58 105 -109 105 -115z m55 14 l90 -93 -110 101 c-60 56 -123
116 -140 134 -62 68 68 -47 160 -142z m120 -169 c66 -66 117 -120 115 -120 -3
0 -59 54 -125 120 -66 66 -117 120 -115 120 3 0 59 -54 125 -120z m199 -139
c-6 -6 -172 158 -186 184 -6 11 35 -25 91 -79 55 -55 98 -102 95 -105z m821
-521 c10 -11 16 -20 13 -20 -3 0 -13 9 -23 20 -10 11 -16 20 -13 20 3 0 13 -9
23 -20z m25 -94 c0 -5 -16 5 -35 24 -19 19 -35 38 -35 44 0 5 16 -5 35 -24 19
-19 35 -38 35 -44z m-1201 -18 c242 -262 467 -480 677 -656 59 -50 19 -26 -71
42 -99 75 -723 595 -750 626 l-20 22 30 24 c17 13 36 24 44 24 7 0 48 -37 90
-82z m1291 37 c20 -24 6 -28 -15 -5 -10 11 -13 20 -8 20 6 0 16 -7 23 -15z m0
-90 c19 -19 32 -35 29 -35 -3 0 -20 16 -39 35 -19 19 -32 35 -29 35 3 0 20
-16 39 -35z m156 -143 c-8 -7 -24 7 -47 41 l-22 32 36 -34 c20 -19 35 -37 33
-39z m138 -111 c-2 -3 -19 10 -37 28 l-32 34 37 -29 c20 -15 35 -30 32 -33z
m-195 -577 c-66 -49 -210 -136 -216 -131 -5 5 75 60 197 135 48 30 61 28 19
-4z m131 -64 c63 -43 463 -359 467 -369 6 -13 -85 -61 -142 -76 -115 -30 -185
-15 -295 64 -100 71 -280 214 -309 245 l-22 23 98 63 c54 34 107 69 118 76 11
7 21 13 23 13 2 1 30 -17 62 -39z"/>
<path d="M954 11212 c-66 -37 -196 -164 -181 -178 2 -3 42 27 88 67 45 39 98
78 116 87 18 9 33 22 33 29 0 17 -18 16 -56 -5z"/>
<path d="M2774 11175 c24 -18 39 -20 34 -2 -3 6 -15 13 -29 15 -23 2 -23 2 -5
-13z"/>
<path d="M3032 11145 c101 -35 108 -37 108 -27 0 10 -134 53 -160 51 -8 0 15
-11 52 -24z"/>
<path d="M2975 11115 c28 -12 113 -42 190 -65 187 -57 255 -84 483 -196 107
-52 198 -94 204 -94 6 0 3 9 -7 20 -67 74 -786 363 -895 359 -20 0 -16 -5 25
-24z"/>
<path d="M3340 11080 c0 -5 89 -54 198 -109 108 -54 228 -118 267 -140 72 -42
119 -55 95 -26 -35 42 -560 300 -560 275z"/>
<path d="M531 10702 c-26 -62 4 -480 40 -542 12 -21 11 6 -6 247 -8 115 -16
235 -17 268 l-3 60 -14 -33z"/>
<path d="M10616 6340 c6 -8 58 -76 115 -150 58 -74 122 -158 142 -186 76 -105
99 -100 29 7 -70 107 -205 272 -255 311 -23 18 -37 26 -31 18z"/>
<path d="M10950 5862 c0 -4 11 -24 26 -45 48 -72 130 -302 173 -488 22 -93 39
-139 53 -139 5 0 6 10 4 23 -3 12 -13 60 -22 107 -34 176 -143 469 -197 528
-21 22 -37 29 -37 14z"/>
<path d="M11346 4792 c-3 -31 -8 -93 -11 -137 -13 -165 -77 -461 -141 -653
-14 -43 -55 -151 -91 -241 -41 -104 -61 -167 -55 -173 16 -16 -3 -71 -67 -194
-68 -129 -106 -183 -145 -203 -29 -16 -41 -40 -26 -55 18 -18 89 63 197 224
96 144 262 551 307 755 9 39 22 165 30 280 27 366 30 442 18 449 -6 4 -12 -15
-16 -52z"/>
<path d="M10950 3458 c0 -7 -18 -40 -41 -73 -22 -33 -47 -73 -55 -90 -13 -27
-12 -26 22 10 39 43 94 132 94 153 0 6 -4 12 -10 12 -5 0 -10 -6 -10 -12z"/>
<path d="M6875 5079 c-134 -20 -339 -61 -396 -79 -34 -11 -71 -20 -82 -20 -11
0 -28 -6 -36 -14 -15 -13 -85 -44 -198 -88 -29 -12 -53 -25 -53 -29 0 -5 6 -7
13 -4 6 2 64 22 127 44 154 53 458 135 600 162 176 32 194 53 25 28z"/>
<path d="M5998 4799 c-36 -18 -50 -39 -28 -39 17 0 65 27 79 44 19 23 -4 21
-51 -5z"/>
<path d="M8330 4817 c3 -3 61 -35 130 -72 351 -188 629 -422 844 -709 102
-136 143 -201 240 -381 42 -77 76 -135 76 -130 0 19 -42 120 -89 215 -102 204
-217 364 -386 539 -187 193 -371 327 -625 455 -129 66 -204 98 -190 83z"/>
<path d="M5500 4246 c0 -23 54 -144 71 -158 51 -43 49 2 -5 86 -30 47 -66 86
-66 72z"/>
<path d="M5580 4028 c0 -7 14 -42 31 -78 17 -36 39 -88 49 -117 10 -29 39 -91
64 -139 25 -48 46 -93 46 -100 0 -21 -29 -36 -82 -43 l-53 -6 59 -34 c88 -51
219 -159 541 -447 335 -299 395 -356 395 -375 0 -20 -108 -139 -126 -139 -29
0 -141 59 -218 114 -90 65 -191 149 -416 346 -460 402 -481 416 -787 539 -177
71 -256 93 -315 89 l-43 -3 83 -43 c45 -23 82 -47 82 -52 0 -6 13 -10 29 -10
40 0 61 -9 61 -26 0 -34 -44 -144 -81 -200 -21 -33 -39 -63 -39 -67 0 -31 84
52 115 113 12 25 30 71 39 103 15 52 37 79 53 64 6 -7 -86 -245 -127 -328 -32
-62 -53 -84 -75 -75 -8 3 -19 -2 -24 -13 -13 -23 -34 -181 -29 -217 5 -35 9
-25 34 81 13 56 23 80 34 80 21 0 24 -38 7 -72 -20 -38 -33 -118 -18 -109 6 4
11 20 11 37 0 36 7 36 72 3 28 -14 65 -27 82 -28 18 -2 73 -29 126 -63 143
-90 249 -147 560 -303 459 -230 636 -303 717 -298 39 2 50 8 62 30 15 25 14
29 -9 53 -32 34 -235 132 -999 481 -152 69 -242 119 -355 193 -83 55 -163 105
-178 112 -41 18 -41 35 2 84 42 49 121 188 140 248 14 46 30 47 110 7 135 -68
214 -128 580 -445 440 -381 481 -414 555 -450 97 -47 160 -54 221 -24 63 30
144 108 144 139 0 12 8 28 17 35 16 12 8 23 -77 110 -104 106 -585 542 -745
674 -87 71 -101 87 -107 120 -3 21 -29 87 -56 148 -28 60 -58 138 -67 173 -18
72 -57 140 -80 140 -8 0 -15 -6 -15 -12z m-592 -1058 c18 -11 39 -20 47 -20 8
0 68 -31 133 -68 137 -79 662 -345 902 -457 150 -70 226 -112 160 -87 -127 48
-875 415 -1042 511 -48 28 -114 60 -145 71 -32 11 -69 31 -83 45 -30 30 -17
32 28 5z m1403 -698 c-12 -4 -87 34 -96 48 -4 6 19 -2 50 -17 31 -15 52 -29
46 -31z"/>
<path d="M7064 2649 c-140 -99 -493 -372 -542 -419 -58 -58 -73 -93 -49 -118
25 -25 85 -1 170 68 147 118 520 451 513 458 -5 4 -130 -92 -425 -326 -113
-89 -209 -162 -215 -162 -5 0 26 28 69 63 144 114 490 405 519 436 44 46 27
46 -40 0z"/>
<path d="M6950 2413 c-14 -9 -75 -60 -136 -112 -61 -53 -150 -129 -197 -169
-48 -40 -87 -79 -87 -87 0 -33 3 -31 266 199 205 179 212 186 193 186 -8 0
-26 -8 -39 -17z"/>
<path d="M6310 2194 c0 -11 92 -74 108 -74 6 0 12 4 12 9 0 13 -59 61 -75 61
-7 0 -20 3 -29 6 -9 3 -16 2 -16 -2z"/>
<path d="M6595 2029 c-4 -6 28 -42 71 -82 44 -40 157 -147 252 -238 207 -200
289 -267 298 -245 7 19 -20 55 -70 92 -21 16 -120 107 -220 203 -99 95 -194
181 -211 192 -16 10 -43 34 -58 54 -28 35 -50 44 -62 24z"/>
<path d="M6530 2002 c0 -9 295 -282 305 -282 14 0 -106 128 -185 197 -88 77
-120 100 -120 85z"/>
<path d="M3450 12592 c0 -4 44 -15 98 -26 151 -28 321 -83 451 -144 131 -61
313 -133 319 -127 13 12 -364 178 -523 230 -141 46 -345 86 -345 67z"/>
<path d="M2476 12289 c-74 -87 -158 -303 -190 -488 -33 -197 -12 -216 29 -26
37 177 71 276 142 414 35 69 62 129 60 134 -2 6 -20 -10 -41 -34z"/>
<path d="M2508 12234 c-93 -128 -169 -354 -184 -553 -9 -115 9 -98 36 34 47
224 79 324 151 466 22 44 38 86 37 91 -2 6 -20 -11 -40 -38z"/>
<path d="M1308 11284 c-15 -8 -32 -24 -39 -35 -10 -19 -8 -20 13 -14 l23 6
-22 -18 c-12 -10 -64 -49 -117 -88 -53 -38 -96 -73 -96 -77 0 -4 33 15 73 41
84 56 124 77 180 97 63 22 54 9 -17 -24 -116 -54 -271 -174 -327 -254 -40 -56
-9 -41 69 34 89 85 134 117 250 178 45 24 88 53 96 65 18 29 34 78 29 93 -6
17 -81 15 -115 -4z m57 -29 c-16 -7 -32 -11 -35 -9 -7 8 24 24 45 23 15 0 13
-4 -10 -14z"/>
<path d="M1108 11152 c-43 -39 -32 -50 13 -13 19 16 31 32 27 36 -3 3 -21 -7
-40 -23z"/>
<path d="M4236 5573 c-3 -3 -3 -10 0 -14 7 -12 34 -11 34 0 0 11 -26 22 -34
14z"/>
<path d="M3895 5546 c-66 -31 -151 -96 -182 -139 -21 -29 -23 -39 -13 -56 14
-28 30 -18 30 20 0 23 4 29 22 29 12 0 61 22 108 49 47 27 97 52 112 56 15 4
33 14 40 23 12 14 9 15 -20 9 -41 -8 -143 -56 -197 -93 l-40 -26 25 26 c13 15
63 49 110 76 89 52 92 67 5 26z"/>
<path d="M3952 5430 c-18 -11 -32 -22 -32 -24 0 -8 60 15 66 26 11 18 -2 17
-34 -2z"/>
<path d="M3875 5349 c-12 -19 5 -23 22 -6 16 16 16 17 1 17 -9 0 -20 -5 -23
-11z"/>
<path d="M3925 5328 c-73 -39 -106 -60 -102 -65 5 -4 104 44 137 66 13 10 13
11 0 11 -8 -1 -24 -6 -35 -12z"/>
<path d="M3885 5262 c-16 -11 -37 -27 -45 -37 -14 -18 -13 -18 18 1 30 17 71
54 61 54 -2 0 -17 -8 -34 -18z"/>
<path d="M3883 5210 c-35 -22 -63 -42 -63 -45 0 -4 32 11 70 31 39 21 70 42
70 46 0 14 -14 8 -77 -32z"/>
<path d="M3960 5204 c-51 -15 -194 -138 -206 -177 -4 -12 -17 -39 -30 -59 -13
-20 -26 -49 -30 -65 l-7 -28 23 20 c12 11 40 53 62 93 47 85 91 130 170 172
85 46 93 67 18 44z"/>
<path d="M3710 4531 c0 -39 53 -132 107 -186 128 -131 308 -181 493 -139 58
13 129 49 118 59 -2 2 -35 -5 -73 -16 -215 -59 -444 28 -575 220 -21 31 -45
63 -54 70 -14 12 -16 11 -16 -8z"/>
<path d="M3786 4543 c-16 -17 93 -154 163 -204 66 -47 162 -79 239 -79 77 0
60 13 -82 60 -64 21 -132 48 -150 60 -39 24 -94 82 -121 128 -19 32 -38 45
-49 35z"/>
<path d="M5197 4514 c-4 -4 -7 -17 -7 -28 0 -19 1 -19 17 -3 12 11 14 20 7 27
-6 6 -13 7 -17 4z"/>
<path d="M5172 4418 c-14 -14 -16 -42 -2 -33 14 9 32 45 22 45 -4 0 -13 -5
-20 -12z"/>
<path d="M5079 4243 c-28 -33 -61 -93 -51 -93 15 0 40 27 58 62 19 36 14 56
-7 31z"/>
<path d="M4962 4080 c-18 -29 -15 -36 8 -15 20 18 26 35 12 35 -4 0 -13 -9
-20 -20z"/>
</g>
</svg>
